<?xml version="1.0" encoding="UTF-8" standalone="no"?>
<!-- Created with Sodipodi ("http://www.sodipodi.com/") -->

<svg
   xmlns:dc="http://purl.org/dc/elements/1.1/"
   xmlns:cc="http://creativecommons.org/ns#"
   xmlns:rdf="http://www.w3.org/1999/02/22-rdf-syntax-ns#"
   xmlns:svg="http://www.w3.org/2000/svg"
   xmlns="http://www.w3.org/2000/svg"
   xmlns:sodipodi="http://sodipodi.sourceforge.net/DTD/sodipodi-0.dtd"
   xmlns:inkscape="http://www.inkscape.org/namespaces/inkscape"
   inkscape:version="0.91 r13725"
   sodipodi:docname="logo.svg"
   sodipodi:version="0.32"
   id="svg602"
   height="286"
   width="286"
   inkscape:output_extension="org.inkscape.output.svg.inkscape"
   version="1.0">
  <defs
     id="defs5931" />
  <sodipodi:namedview
     inkscape:current-layer="g2409"
     inkscape:window-y="44"
     inkscape:window-x="44"
     inkscape:window-height="879"
     inkscape:window-width="1756"
     inkscape:cy="143"
     inkscape:cx="134.27363"
     inkscape:zoom="1.7762238"
     id="base"
     showgrid="false"
     inkscape:window-maximized="0" />
  <g
     id="g2409">
    <path
       id="path924"
       d="M 488.04684,239.2545 C 488.04684,317.46146 423.59552,380.93378 344.18228,380.93378 C 264.76904,380.93378 200.31772,317.46146 200.31772,239.2545 C 200.31772,161.04754 264.76904,97.575226 344.18228,97.575226 C 423.59552,97.575226 488.04684,161.04754 488.04684,239.2545 z"
       style="fill:#ae38b2;fill-opacity:1;fill-rule:evenodd;stroke:none;stroke-width:1pt;stroke-linecap:butt;stroke-linejoin:miter;stroke-opacity:1"
       transform="matrix(0.989917,0,0,1.002559,-197.71189,-96.866754)" />
    <path
       sodipodi:nodetypes="ccccccc"
       id="path705"
       d="M 130.71628,8.267328 C 109.94228,11.193128 89.62614,16.813268 72.26314,29.054268 C 42.99614,49.687268 20.79514,77.253268 11.82018,112.32127 C -1.31282,163.64027 22.43814,223.21727 66.26714,252.25227 C 93.96614,270.60127 130.49814,278.11027 163.26324,274.13727 C 236.93414,265.20227 283.68328,191.63599 273.49528,120.13599 C 264.81128,59.187988 194.40438,-0.700766 130.71628,8.267328 z"
       style="fill:#b946f0;stroke:none;fill-opacity:1" />
    <path
       sodipodi:nodetypes="cccccccc"
       id="path1028"
       d="M 136.621,29.749268 C 115.467,32.275268 100.70114,34.959268 82.26314,46.965268 C 37.25614,76.273268 16.62514,136.17227 38.13714,186.15127 C 48.49114,210.20627 65.75229,228.29142 88.09129,241.74442 C 110.78029,255.40842 135.84014,257.7667 161.16424,254.8827 C 177.54624,253.0177 200.03124,240.86927 212.39324,230.59327 C 235.90514,211.04827 252.04814,185.05827 254.97914,154.32127 C 260.83714,92.893268 202.7351,21.855268 136.621,29.749268 z"
       style="fill:#fdcee8;stroke:none;fill-opacity:1" />
    <path
       id="path1177"
       d="M 148.26324,36.066268 C 138.54314,36.271268 124.29714,34.596268 118.31214,44.426268 C 115.48314,49.071268 118.68614,53.763268 119.96314,58.321268 C 123.25414,70.067268 125.61714,81.833268 130.01514,93.321268 C 133.20014,101.64327 134.57314,110.21027 138.62714,118.32127 C 139.67414,120.41627 141.52314,125.11427 144.37614,125.11427 C 150.20424,125.11427 156.72724,104.09727 158.87624,99.321268 C 164.37324,87.101268 168.11824,74.070268 171.88224,61.321268 C 173.33024,56.417268 176.51924,50.626268 174.36624,45.429268 C 171.11024,37.571268 155.55324,35.913268 148.26324,36.066268 z"
       style="fill:#f668f5;stroke:none;fill-opacity:1" />
    <path
       id="path1459"
       d="M 98.26214,54.338268 C 85.45614,53.540268 69.13514,72.704268 63.54814,82.321268 C 61.46914,85.902268 56.52314,91.854268 58.62514,96.140268 C 61.06614,101.11927 68.72214,104.67927 73.26314,107.46027 C 87.50314,116.18027 112.00314,130.67627 129.21814,130.25827 C 137.30914,130.06127 131.79514,116.21927 130.09014,112.32127 C 123.81514,97.974268 116.44514,83.692268 110.54914,69.321268 C 108.16714,63.515268 106.19514,54.832268 98.26214,54.338268 z"
       style="fill:#f668f5;stroke:none;fill-opacity:1" />
    <path
       id="path1532"
       d="M 192.56424,57.309268 C 187.55024,59.997268 185.26924,67.636268 182.59224,72.321268 C 175.39324,84.921268 167.81224,97.166268 161.75924,110.32127 C 159.62224,114.96627 154.30424,122.72527 156.65124,128.17227 C 158.73724,133.01327 166.80924,129.69727 170.26324,128.25227 C 181.73524,123.45127 191.42424,116.01027 202.26324,110.11227 C 210.64524,105.55127 222.41214,99.784268 226.11514,90.321268 C 231.53614,76.467268 206.96024,49.592268 192.56424,57.309268 z"
       style="fill:#f668f5;stroke:none;fill-opacity:1" />
    <path
       id="path2530"
       d="M 233.26314,112.60827 C 229.91014,112.53027 226.59714,115.37827 223.26314,115.99227 C 207.95824,118.81127 192.65224,125.77427 178.26324,131.93227 C 174.50424,133.54127 163.71124,136.96527 163.88424,142.28527 C 164.05824,147.62027 175.45524,150.24727 179.26324,151.91127 C 195.77924,159.13027 213.98924,168.53027 232.33814,168.25227 C 247.66414,168.02127 248.21814,133.60027 244.67414,123.32127 C 243.27514,119.26327 237.95014,112.71727 233.26314,112.60827 z"
       style="fill:#f668f5;stroke:none;fill-opacity:1" />
    <path
       id="path2596"
       d="M 52.27814,114.89427 C 42.92314,117.61327 41.54614,130.30127 41.40314,138.32127 C 41.08714,156.01627 42.04214,175.00727 65.26314,168.78227 C 79.93614,164.84927 96.05114,159.04727 109.26314,151.61727 C 113.02714,149.50027 121.19914,147.01327 122.29214,142.19327 C 123.80614,135.52327 111.44214,133.12627 107.26314,131.05227 C 97.77314,126.34127 88.05214,124.04127 78.26314,120.33427 C 70.71714,117.47727 60.66114,112.45927 52.27814,114.89427 z"
       style="fill:#f668f5;stroke:none;fill-opacity:1" />
    <path
       id="path3408"
       d="M 125.25914,152.17227 C 119.61514,152.88527 114.27314,157.25427 109.25914,159.64227 C 94.56214,166.64227 70.02414,176.15527 61.95114,191.36127 C 54.02114,206.29627 76.31614,229.41427 92.17314,227.79727 C 98.53314,227.14827 103.06114,217.23727 105.53214,212.32127 C 113.14214,197.17927 121.74814,182.58527 129.16814,167.32127 C 131.47114,162.58427 134.56214,150.99827 125.25914,152.17227 z"
       style="fill:#f668f5;stroke:none;fill-opacity:1" />
    <path
       id="path3493"
       d="M 158.02024,155.35027 C 152.62824,159.84927 163.75324,181.33727 166.15424,186.32127 C 171.27924,196.95827 175.78224,207.74027 180.98324,218.32127 C 183.08324,222.59427 184.67724,228.51527 190.30224,229.13327 C 197.55924,229.92927 204.85724,222.21027 209.97824,217.95427 C 216.27614,212.72127 233.34214,195.63227 229.52014,186.42527 C 225.31114,176.28427 204.43324,170.10327 195.26324,165.65727 C 186.34424,161.33227 177.95324,157.61127 168.26324,155.65627 C 165.41824,155.08227 160.61424,153.18527 158.02024,155.35027 z"
       style="fill:#f668f5;stroke:none;fill-opacity:1" />
    <path
       sodipodi:nodetypes="cccccccc"
       id="path3689"
       d="M 141.32114,162.45727 C 132.94114,166.05127 127.04986,187.3267 124.35486,195.0497 C 120.56786,205.9027 110.46114,224.32327 113.85114,236.22827 C 115.30114,241.31827 121.76914,242.82027 126.26314,243.94027 C 138.00714,246.86727 155.77124,248.89927 167.15824,243.47827 C 174.33624,240.06027 172.86024,232.40827 171.19724,226.31727 C 166.89224,210.54827 161.13324,193.25127 154.43824,178.32127 C 152.34624,173.65627 149.24124,159.06027 141.32114,162.45727 z"
       style="fill:#f668f5;stroke:none;fill-opacity:1" />
  </g>
  <metadata
     id="metadata20">
    <rdf:RDF>
      <cc:Work
         rdf:about="">
        <dc:format>image/svg+xml</dc:format>
        <dc:type
           rdf:resource="http://purl.org/dc/dcmitype/StillImage" />
        <dc:description>jean.victor.balin@gmail.com</dc:description>
        <cc:license
           rdf:resource="http://creativecommons.org/licenses/publicdomain/" />
        <dc:title>Rondelle d'Orange</dc:title>
        <dc:date>2004-08-03</dc:date>
        <dc:creator>
          <cc:Agent>
            <dc:title>Jean-Victor Balin</dc:title>
          </cc:Agent>
        </dc:creator>
        <dc:language>fr-FR</dc:language>
        <dc:subject>
          <rdf:Bag>
            <rdf:li>food</rdf:li>
            <rdf:li>fruit</rdf:li>
            <rdf:li>orange</rdf:li>
          </rdf:Bag>
        </dc:subject>
      </cc:Work>
      <cc:License
         rdf:about="http://creativecommons.org/licenses/publicdomain/">
        <cc:permits
           rdf:resource="http://creativecommons.org/ns#Reproduction" />
        <cc:permits
           rdf:resource="http://creativecommons.org/ns#Distribution" />
        <cc:permits
           rdf:resource="http://creativecommons.org/ns#DerivativeWorks" />
      </cc:License>
    </rdf:RDF>
  </metadata>
</svg>
